<svg width="32" height="32" viewBox="0 0 32 32" fill="none" xmlns="http://www.w3.org/2000/svg">
<rect width="32" height="32" rx="16" fill="#25282C"/>
<path d="M24 11.5C23.4 11.8 22.8 11.9 22.1 12C22.8 11.6 23.3 11 23.5 10.2C22.9 10.6 22.2 10.8 21.4 11C20.8 10.4 19.9 10 19 10C17.3 10 15.8 11.5 15.8 13.3C15.8 13.6 15.8 13.8 15.9 14C13.2 13.9 10.7 12.6 9.1 10.6C8.8 11.1 8.7 11.6 8.7 12.3C8.7 13.4 9.3 14.4 10.2 15C9.7 15 9.2 14.8 8.7 14.6C8.7 16.2 9.8 17.5 11.3 17.8C11 17.9 10.7 17.9 10.4 17.9C10.2 17.9 10 17.9 9.8 17.8C10.2 19.1 11.4 20.1 12.9 20.1C11.8 21 10.4 21.5 8.8 21.5C8.5 21.5 8.3 21.5 8 21.5C9.5 22.4 11.2 23 13 23C19 23 22.3 18 22.3 13.7C22.3 13.6 22.3 13.4 22.3 13.3C23 12.8 23.6 12.2 24 11.5Z" fill="#5D5DFF"/>
</svg>
