<svg width="32" height="32" viewBox="0 0 32 32" fill="none" xmlns="http://www.w3.org/2000/svg">
<rect width="32" height="32" rx="16" fill="#25282C"/>
<path fill-rule="evenodd" clip-rule="evenodd" d="M16 8.19995C11.6 8.19995 8 11.8 8 16.2C8 19.7 10.3 22.7 13.5 23.8C13.9 23.9 14 23.6 14 23.4C14 23.2 14 22.7 14 22C11.8 22.5 11.3 21 11.3 21C10.9 20.1 10.4 19.8 10.4 19.8C9.7 19.3 10.5 19.3 10.5 19.3C11.3 19.4 11.7 20.1 11.7 20.1C12.4 21.4 13.6 21 14 20.8C14.1 20.3 14.3 19.9 14.5 19.7C12.7 19.5 10.9 18.8 10.9 15.7C10.9 14.8 11.2 14.1 11.7 13.6C11.6 13.4 11.3 12.6 11.8 11.5C11.8 11.5 12.5 11.3 14 12.3C14.6 12.1 15.3 12 16 12C16.7 12 17.4 12.1 18 12.3C19.5 11.3 20.2 11.5 20.2 11.5C20.6 12.6 20.4 13.4 20.3 13.6C20.8 14.2 21.1 14.9 21.1 15.7C21.1 18.8 19.2 19.4 17.4 19.6C17.7 20 18 20.5 18 21.2C18 22.3 18 23.1 18 23.4C18 23.6 18.1 23.9 18.6 23.8C21.8 22.7 24.1 19.7 24.1 16.2C24 11.8 20.4 8.19995 16 8.19995Z" fill="#5D5DFF"/>
</svg>
