<svg width="32" height="32" viewBox="0 0 32 32" fill="none" xmlns="http://www.w3.org/2000/svg">
<rect width="32" height="32" rx="16" fill="#25282C"/>
<circle cx="20.1451" cy="11.8919" r="0.96" fill="#5D5DFF"/>
<path fill-rule="evenodd" clip-rule="evenodd" d="M12 16C12 18.206 13.794 20 16 20C18.206 20 20 18.206 20 16C20 13.794 18.206 12 16 12C13.794 12 12 13.794 12 16ZM14 16C14 14.897 14.897 14 16 14C17.103 14 18 14.897 18 16C18 17.103 17.103 18 16 18C14.897 18 14 17.103 14 16Z" fill="#5D5DFF"/>
<path fill-rule="evenodd" clip-rule="evenodd" d="M12 24H20C22.056 24 24 22.056 24 20V12C24 9.944 22.056 8 20 8H12C9.944 8 8 9.944 8 12V20C8 22.056 9.944 24 12 24ZM10 12C10 11.065 11.065 10 12 10H20C20.935 10 22 11.065 22 12V20C22 20.935 20.935 22 20 22H12C11.047 22 10 20.953 10 20V12Z" fill="#5D5DFF"/>
</svg>
