<svg width="32" height="32" viewBox="0 0 32 32" fill="none" xmlns="http://www.w3.org/2000/svg">
<rect width="32" height="32" rx="16" fill="#25282C"/>
<path fill-rule="evenodd" clip-rule="evenodd" d="M8.7 8H23.3C23.7 8 24 8.3 24.1 8.7V23.3C24.1 23.7 23.8 24 23.4 24H8.7C8.3 24 8 23.7 8 23.4V8.7C8 8.3 8.3 8 8.7 8ZM10.4 21.6H12.7H12.8V14H10.4V21.6ZM11.6 13C10.8 13 10.2 12.3 10.2 11.6C10.2 10.8 10.8 10.2 11.6 10.2C12.4 10.2 13 10.8 13 11.6C12.9 12.3 12.3 13 11.6 13ZM19.2 21.6H21.5V17.4C21.5 15.4 21.1 13.8 18.7 13.8C17.6 13.8 16.8 14.4 16.5 15V14H14.2V21.7H16.6V17.9C16.6 16.9 16.8 15.9 18 15.9C19.2 15.9 19.2 17 19.2 17.9V21.6Z" fill="#5D5DFF"/>
</svg>
